<svg xmlns="http://www.w3.org/2000/svg" xmlns:xlink="http://www.w3.org/1999/xlink" width="1300" height="361pt" viewBox="0 0 975 360.6"><g id="graph0" class="graph" transform="scale(1 1) rotate(0) translate(4 356.6)"><title>G</title><polygon fill="#fff" stroke="transparent" points="-4 4 -4 -356.6 971 -356.6 971 4 -4 4"/><g id="clust1" class="cluster"><title>cluster_core</title><polygon fill="none" stroke="red" points="8 -16 8 -311.8 250 -311.8 250 -16 8 -16"/><text x="129" y="-295.2" fill="#000" font-family="Times,serif" font-size="14" text-anchor="middle">core</text></g><g id="clust2" class="cluster"><title>cluster_train</title><polygon fill="none" stroke="#0f0" points="278 -16 278 -311.8 372 -311.8 372 -16 278 -16"/><text x="325" y="-295.2" fill="#000" font-family="Times,serif" font-size="14" text-anchor="middle">training</text></g><g id="clust3" class="cluster"><title>cluster_app</title><polygon fill="none" stroke="#00f" points="415 -8 415 -344.6 959 -344.6 959 -8 415 -8"/><text x="687" y="-328" fill="#000" font-family="Times,serif" font-size="14" text-anchor="middle">applications</text></g><g id="clust5" class="cluster"><title>cluster_vision</title><polygon fill="none" stroke="#00f" points="807 -16 807 -311.8 951 -311.8 951 -16 807 -16"/><text x="879" y="-295.2" fill="#000" font-family="Times,serif" font-size="14" text-anchor="middle">vision</text></g><g id="clust6" class="cluster"><title>cluster_text</title><polygon fill="none" stroke="#00f" points="655 -89 655 -311.8 799 -311.8 799 -89 655 -89"/><text x="727" y="-295.2" fill="#000" font-family="Times,serif" font-size="14" text-anchor="middle">text</text></g><g id="clust7" class="cluster"><title>cluster_tabular</title><polygon fill="none" stroke="#00f" points="487 -162 487 -311.8 647 -311.8 647 -162 487 -162"/><text x="567" y="-295.2" fill="#000" font-family="Times,serif" font-size="14" text-anchor="middle">tabular</text></g><g id="node1" class="node"><title>core</title><polygon fill="none" stroke="#000" points="146 -279 92 -279 92 -243 146 -243 146 -279"/><text x="119" y="-256.8" fill="#000" font-family="Times,serif" font-size="14" text-anchor="middle">core</text></g><g id="node2" class="node"><title>torch_core</title><polygon fill="none" stroke="#000" points="156.856 -206 81.144 -206 81.144 -170 156.856 -170 156.856 -206"/><text x="119" y="-183.8" fill="#000" font-family="Times,serif" font-size="14" text-anchor="middle">torch_core</text></g><g id="edge1" class="edge"><title>core-&gt;torch_core</title><path fill="none" stroke="#000" d="M119,-242.9551C119,-234.8828 119,-225.1764 119,-216.1817"/><polygon fill="#000" stroke="#000" points="122.5 -216.09 119 -206.09 115.5 -216.09 122.5 -216.09"/></g><g id="node7" class="node"><title>callback</title><polygon fill="none" stroke="#000" points="356.141 -279 293.859 -279 293.859 -243 356.141 -243 356.141 -279"/><text x="325" y="-256.8" fill="#000" font-family="Times,serif" font-size="14" text-anchor="middle">callback</text></g><g id="edge17" class="edge"><title>core-&gt;callback</title><path fill="none" stroke="#000" d="M249.9983,-261C256.1518,-261 262.161,-261 267.9286,-261"/><polygon fill="#000" stroke="#000" points="268.002 -264.5 278.002 -261 268.002 -257.5 268.002 -264.5"/></g><g id="node3" class="node"><title>metrics</title><polygon fill="none" stroke="#000" points="73.707 -133 16.293 -133 16.293 -97 73.707 -97 73.707 -133"/><text x="45" y="-110.8" fill="#000" font-family="Times,serif" font-size="14" text-anchor="middle">metrics</text></g><g id="edge2" class="edge"><title>torch_core-&gt;metrics</title><path fill="none" stroke="#000" d="M100.7079,-169.9551C91.6356,-161.0054 80.5271,-150.047 70.6232,-140.2769"/><polygon fill="#000" stroke="#000" points="72.915 -137.621 63.338 -133.09 67.999 -142.605 72.915 -137.621"/></g><g id="node4" class="node"><title>layers</title><polygon fill="none" stroke="#000" points="146 -133 92 -133 92 -97 146 -97 146 -133"/><text x="119" y="-110.8" fill="#000" font-family="Times,serif" font-size="14" text-anchor="middle">layers</text></g><g id="edge3" class="edge"><title>torch_core-&gt;layers</title><path fill="none" stroke="#000" d="M119,-169.9551C119,-161.8828 119,-152.1764 119,-143.1817"/><polygon fill="#000" stroke="#000" points="122.5 -143.09 119 -133.09 115.5 -143.09 122.5 -143.09"/></g><g id="node5" class="node"><title>basic_data</title><polygon fill="none" stroke="#000" points="241.926 -133 164.074 -133 164.074 -97 241.926 -97 241.926 -133"/><text x="203" y="-110.8" fill="#000" font-family="Times,serif" font-size="14" text-anchor="middle">basic_data</text></g><g id="edge4" class="edge"><title>torch_core-&gt;data_block</title><path fill="none" stroke="#000" d="M139.7641,-169.9551C150.2642,-160.8299 163.1674,-149.6165 174.5739,-139.7036"/><polygon fill="#000" stroke="#000" points="176.931 -142.292 182.184 -133.09 172.34 -137.008 176.931 -142.292"/></g><g id="node6" class="node"><title>data_block</title><polygon fill="none" stroke="#000" points="240.584 -60 165.416 -60 165.416 -24 240.584 -24 240.584 -60"/><text x="203" y="-37.8" fill="#000" font-family="Times,serif" font-size="14" text-anchor="middle">data_block</text></g><g id="edge5" class="edge"><title>basic_data-&gt;data_block</title><path fill="none" stroke="#000" d="M203,-96.9551C203,-88.8828 203,-79.1764 203,-70.1817"/><polygon fill="#000" stroke="#000" points="206.5 -70.09 203 -60.09 199.5 -70.09 206.5 -70.09"/></g><g id="node8" class="node"><title>basic_train</title><polygon fill="none" stroke="#000" points="363.922 -206 286.078 -206 286.078 -170 363.922 -170 363.922 -206"/><text x="325" y="-183.8" fill="#000" font-family="Times,serif" font-size="14" text-anchor="middle">basic_train</text></g><g id="edge6" class="edge"><title>callback-&gt;basic_train</title><path fill="none" stroke="#000" d="M325,-242.9551C325,-234.8828 325,-225.1764 325,-216.1817"/><polygon fill="#000" stroke="#000" points="328.5 -216.09 325 -206.09 321.5 -216.09 328.5 -216.09"/></g><g id="node11" class="node"><title>collab</title><polygon fill="none" stroke="#000" points="477 -279 423 -279 423 -243 477 -243 477 -279"/><text x="450" y="-256.8" fill="#000" font-family="Times,serif" font-size="14" text-anchor="middle">collab</text></g><g id="edge18" class="edge"><title>callback-&gt;collab</title><path fill="none" stroke="#000" d="M371.9975,-261C385.4902,-261 400.0118,-261 412.8245,-261"/><polygon fill="#000" stroke="#000" points="405 -264.5 415 -261 405 -257.5 405 -264.5"/></g><g id="node9" class="node"><title>callbacks</title><polygon fill="none" stroke="#000" points="359.084 -133 290.916 -133 290.916 -97 359.084 -97 359.084 -133"/><text x="325" y="-110.8" fill="#000" font-family="Times,serif" font-size="14" text-anchor="middle">callbacks</text></g><g id="edge7" class="edge"><title>basic_train-&gt;callbacks</title><path fill="none" stroke="#000" d="M325,-169.9551C325,-161.8828 325,-152.1764 325,-143.1817"/><polygon fill="#000" stroke="#000" points="328.5 -143.09 325 -133.09 321.5 -143.09 328.5 -143.09"/></g><g id="node10" class="node"><title>train</title><polygon fill="none" stroke="#000" points="352 -60 298 -60 298 -24 352 -24 352 -60"/><text x="325" y="-37.8" fill="#000" font-family="Times,serif" font-size="14" text-anchor="middle">train</text></g><g id="edge8" class="edge"><title>callbacks-&gt;train</title><path fill="none" stroke="#000" d="M325,-96.9551C325,-88.8828 325,-79.1764 325,-70.1817"/><polygon fill="#000" stroke="#000" points="328.5 -70.09 325 -60.09 321.5 -70.09 328.5 -70.09"/></g><g id="node12" class="node"><title>vdata</title><polygon fill="none" stroke="#000" points="869 -133 815 -133 815 -97 869 -97 869 -133"/><text x="842" y="-110.8" fill="#000" font-family="Times,serif" font-size="14" text-anchor="middle">data</text></g><g id="node14" class="node"><title>vlearn</title><polygon fill="none" stroke="#000" points="905 -60 851 -60 851 -24 905 -24 905 -60"/><text x="878" y="-37.8" fill="#000" font-family="Times,serif" font-size="14" text-anchor="middle">learn</text></g><g id="edge11" class="edge"><title>vdata-&gt;vlearn</title><path fill="none" stroke="#000" d="M850.8989,-96.9551C855.0095,-88.6196 859.9795,-78.5416 864.5349,-69.3042"/><polygon fill="#000" stroke="#000" points="867.795 -70.607 869.079 -60.09 861.517 -67.511 867.795 -70.607"/></g><g id="node13" class="node"><title>vtransform</title><polygon fill="none" stroke="#000" points="885.423 -206 814.577 -206 814.577 -170 885.423 -170 885.423 -206"/><text x="850" y="-183.8" fill="#000" font-family="Times,serif" font-size="14" text-anchor="middle">transform</text></g><g id="edge10" class="edge"><title>vtransform-&gt;vdata</title><path fill="none" stroke="#000" d="M848.0225,-169.9551C847.1378,-161.8828 846.0741,-152.1764 845.0884,-143.1817"/><polygon fill="#000" stroke="#000" points="848.551 -142.649 843.982 -133.09 841.593 -143.412 848.551 -142.649"/></g><g id="node15" class="node"><title>vmodel</title><polygon fill="none" stroke="#000" points="943.442 -133 886.558 -133 886.558 -97 943.442 -97 943.442 -133"/><text x="915" y="-110.8" fill="#000" font-family="Times,serif" font-size="14" text-anchor="middle">models</text></g><g id="edge12" class="edge"><title>vmodel-&gt;vlearn</title><path fill="none" stroke="#000" d="M905.8539,-96.9551C901.5846,-88.5319 896.4135,-78.3292 891.6914,-69.0128"/><polygon fill="#000" stroke="#000" points="894.812 -67.428 887.169 -60.09 888.568 -70.592 894.812 -67.428"/></g><g id="node16" class="node"><title>image</title><polygon fill="none" stroke="#000" points="877 -279 823 -279 823 -243 877 -243 877 -279"/><text x="850" y="-256.8" fill="#000" font-family="Times,serif" font-size="14" text-anchor="middle">image</text></g><g id="edge9" class="edge"><title>image-&gt;vtransform</title><path fill="none" stroke="#000" d="M850,-242.9551C850,-234.8828 850,-225.1764 850,-216.1817"/><polygon fill="#000" stroke="#000" points="853.5 -216.09 850 -206.09 846.5 -216.09 853.5 -216.09"/></g><g id="node17" class="node"><title>tdata</title><polygon fill="none" stroke="#000" points="791 -206 737 -206 737 -170 791 -170 791 -206"/><text x="764" y="-183.8" fill="#000" font-family="Times,serif" font-size="14" text-anchor="middle">data</text></g><g id="node19" class="node"><title>tlearn</title><polygon fill="none" stroke="#000" points="754 -133 700 -133 700 -97 754 -97 754 -133"/><text x="727" y="-110.8" fill="#000" font-family="Times,serif" font-size="14" text-anchor="middle">learn</text></g><g id="edge14" class="edge"><title>tdata-&gt;tlearn</title><path fill="none" stroke="#000" d="M754.8539,-169.9551C750.5846,-161.5319 745.4135,-151.3292 740.6914,-142.0128"/><polygon fill="#000" stroke="#000" points="743.812 -140.428 736.169 -133.09 737.568 -143.592 743.812 -140.428"/></g><g id="node18" class="node"><title>ttransform</title><polygon fill="none" stroke="#000" points="791.423 -279 720.577 -279 720.577 -243 791.423 -243 791.423 -279"/><text x="756" y="-256.8" fill="#000" font-family="Times,serif" font-size="14" text-anchor="middle">transform</text></g><g id="edge13" class="edge"><title>ttransform-&gt;tdata</title><path fill="none" stroke="#000" d="M757.9775,-242.9551C758.8622,-234.8828 759.9259,-225.1764 760.9116,-216.1817"/><polygon fill="#000" stroke="#000" points="764.407 -216.412 762.018 -206.09 757.449 -215.649 764.407 -216.412"/></g><g id="node20" class="node"><title>tmodel</title><polygon fill="none" stroke="#000" points="719.442 -206 662.558 -206 662.558 -170 719.442 -170 719.442 -206"/><text x="691" y="-183.8" fill="#000" font-family="Times,serif" font-size="14" text-anchor="middle">models</text></g><g id="edge15" class="edge"><title>tmodel-&gt;tlearn</title><path fill="none" stroke="#000" d="M699.8989,-169.9551C704.0095,-161.6196 708.9795,-151.5416 713.5349,-142.3042"/><polygon fill="#000" stroke="#000" points="716.795 -143.607 718.079 -133.09 710.517 -140.511 716.795 -143.607"/></g><g id="node21" class="node"><title>udata</title><polygon fill="none" stroke="#000" points="631 -206 577 -206 577 -170 631 -170 631 -206"/><text x="604" y="-183.8" fill="#000" font-family="Times,serif" font-size="14" text-anchor="middle">data</text></g><g id="node22" class="node"><title>utransform</title><polygon fill="none" stroke="#000" points="639.423 -279 568.577 -279 568.577 -243 639.423 -243 639.423 -279"/><text x="604" y="-256.8" fill="#000" font-family="Times,serif" font-size="14" text-anchor="middle">transform</text></g><g id="edge16" class="edge"><title>utransform-&gt;udata</title><path fill="none" stroke="#000" d="M604,-242.9551C604,-234.8828 604,-225.1764 604,-216.1817"/><polygon fill="#000" stroke="#000" points="607.5 -216.09 604 -206.09 600.5 -216.09 607.5 -216.09"/></g><g id="node23" class="node"><title>umodel</title><polygon fill="none" stroke="#000" points="551.442 -279 494.558 -279 494.558 -243 551.442 -243 551.442 -279"/><text x="523" y="-256.8" fill="#000" font-family="Times,serif" font-size="14" text-anchor="middle">models</text></g></g></svg>